<?xml version="1.0" encoding="UTF-8" standalone="no"?>
<!-- Created with Inkscape (http://www.inkscape.org/) -->

<svg
   width="129.95549mm"
   height="107.41438mm"
   viewBox="0 0 129.95549 107.41438"
   version="1.1"
   id="svg1"
   xml:space="preserve"
   xmlns:inkscape="http://www.inkscape.org/namespaces/inkscape"
   xmlns:sodipodi="http://sodipodi.sourceforge.net/DTD/sodipodi-0.dtd"
   xmlns="http://www.w3.org/2000/svg"
   xmlns:svg="http://www.w3.org/2000/svg"><sodipodi:namedview
     id="namedview1"
     pagecolor="#ffffff"
     bordercolor="#000000"
     borderopacity="0.25"
     inkscape:showpageshadow="2"
     inkscape:pageopacity="0.0"
     inkscape:pagecheckerboard="0"
     inkscape:deskcolor="#d1d1d1"
     inkscape:document-units="mm"><inkscape:page
       x="1.5283987e-20"
       y="0"
       width="129.95551"
       height="107.41438"
       id="page2"
       margin="0"
       bleed="0" /></sodipodi:namedview><defs
     id="defs1"><inkscape:path-effect
       effect="fillet_chamfer"
       id="path-effect13"
       is_visible="true"
       lpeversion="1"
       nodesatellites_param="F,0,0,1,0,1.5484061,0,1 @ F,0,0,1,0,1.4703353,0,1 @ F,0,0,1,0,1.8737015,0,1 @ F,0,0,1,0,2.1859852,0,1"
       radius="0"
       unit="px"
       method="auto"
       mode="F"
       chamfer_steps="1"
       flexible="false"
       use_knot_distance="true"
       apply_no_radius="true"
       apply_with_radius="true"
       only_selected="false"
       hide_knots="false" /><inkscape:path-effect
       effect="fillet_chamfer"
       id="path-effect13-2"
       is_visible="true"
       lpeversion="1"
       nodesatellites_param="F,0,0,1,0,2.0038197,0,1 @ F,0,0,1,0,2.055867,0,1 @ F,0,0,1,0,2.1339379,0,1 @ F,0,0,1,0,1.990808,0,1"
       radius="0"
       unit="px"
       method="auto"
       mode="F"
       chamfer_steps="1"
       flexible="false"
       use_knot_distance="true"
       apply_no_radius="true"
       apply_with_radius="true"
       only_selected="false"
       hide_knots="false" /><inkscape:path-effect
       effect="fillet_chamfer"
       id="path-effect13-2-1"
       is_visible="true"
       lpeversion="1"
       nodesatellites_param="F,0,0,1,0,2.0038197,0,1 @ F,0,0,1,0,2.055867,0,1 @ F,0,0,1,0,2.1339379,0,1 @ F,0,0,1,0,1.990808,0,1"
       radius="0"
       unit="px"
       method="auto"
       mode="F"
       chamfer_steps="1"
       flexible="false"
       use_knot_distance="true"
       apply_no_radius="true"
       apply_with_radius="true"
       only_selected="false"
       hide_knots="false" /><inkscape:path-effect
       effect="fillet_chamfer"
       id="path-effect13-2-1-1"
       is_visible="true"
       lpeversion="1"
       nodesatellites_param="F,0,0,1,0,2.0038197,0,1 @ F,0,0,1,0,2.055867,0,1 @ F,0,0,1,0,2.1339379,0,1 @ F,0,0,1,0,1.990808,0,1"
       radius="0"
       unit="px"
       method="auto"
       mode="F"
       chamfer_steps="1"
       flexible="false"
       use_knot_distance="true"
       apply_no_radius="true"
       apply_with_radius="true"
       only_selected="false"
       hide_knots="false" /><inkscape:path-effect
       effect="fillet_chamfer"
       id="path-effect13-1"
       is_visible="true"
       lpeversion="1"
       nodesatellites_param="F,0,0,1,0,1.5484061,0,1 @ F,0,0,1,0,1.4703353,0,1 @ F,0,0,1,0,1.8737015,0,1 @ F,0,0,1,0,2.1859852,0,1"
       radius="0"
       unit="px"
       method="auto"
       mode="F"
       chamfer_steps="1"
       flexible="false"
       use_knot_distance="true"
       apply_no_radius="true"
       apply_with_radius="true"
       only_selected="false"
       hide_knots="false" /><inkscape:path-effect
       effect="fillet_chamfer"
       id="path-effect13-1-8"
       is_visible="true"
       lpeversion="1"
       nodesatellites_param="F,0,0,1,0,1.5484061,0,1 @ F,0,0,1,0,1.4703353,0,1 @ F,0,0,1,0,1.8737015,0,1 @ F,0,0,1,0,2.1859852,0,1"
       radius="0"
       unit="px"
       method="auto"
       mode="F"
       chamfer_steps="1"
       flexible="false"
       use_knot_distance="true"
       apply_no_radius="true"
       apply_with_radius="true"
       only_selected="false"
       hide_knots="false" /><inkscape:path-effect
       effect="fillet_chamfer"
       id="path-effect13-1-8-4"
       is_visible="true"
       lpeversion="1"
       nodesatellites_param="F,0,0,1,0,1.5484061,0,1 @ F,0,0,1,0,1.4703353,0,1 @ F,0,0,1,0,1.8737015,0,1 @ F,0,0,1,0,2.1859852,0,1"
       radius="0"
       unit="px"
       method="auto"
       mode="F"
       chamfer_steps="1"
       flexible="false"
       use_knot_distance="true"
       apply_no_radius="true"
       apply_with_radius="true"
       only_selected="false"
       hide_knots="false" /></defs><g
     inkscape:label="Réteg 1"
     inkscape:groupmode="layer"
     id="layer1"
     transform="translate(-40.33663,-84.431192)"><path
       style="fill:#000000;stroke-width:0"
       d="m 40.336631,106.68332 1.236123,-1.52889 52.795441,0.0325 c 4.380645,1.56142 8.023955,4.12041 10.929925,7.67697 3.69753,-4.08788 7.56854,-6.61434 11.61305,-7.57938 l 52.14485,0.13012 1.23612,1.20359 v 3.09031 l -1.04094,1.17106 -50.35573,-0.13012 c -3.56741,1.04094 -6.96132,3.59993 -10.18175,7.67697 l -0.0325,26.77181 c 3.40444,-3.32141 6.62487,-6.52015 9.66128,-9.59621 l 49.64008,0.13012 1.52889,1.20359 -0.0325,3.25296 -1.00841,1.07347 -46.84254,0.0325 c -3.93346,3.81829 -8.49059,8.5721 -12.8817,13.07687 v 35.91262 l -1.04094,1.52889 -4.58667,0.0325 -1.20359,-1.20359 v -36.49806 l -12.914229,-12.78411 -45.996769,-0.0976 -1.756596,-1.04095 0.06506,-3.44813 1.23612,-1.106 49.477432,0.0651 9.758862,9.46609 0.0976,-27.03205 c -2.851757,-3.39391 -6.137241,-5.877 -9.856452,-7.44926 l -50.193079,0.0976 -1.4313,-0.84576 z"
       id="path12"
       sodipodi:nodetypes="cccccccccccccccccccccccccccccccccccc" /><path
       style="fill:#a2d037;fill-opacity:1;stroke-width:0"
       id="rect13"
       width="14.183"
       height="14.052762"
       x="76.83477"
       y="125.23873"
       inkscape:path-effect="#path-effect13"
       sodipodi:type="rect"
       d="m 78.383176,125.23873 h 11.164259 a 1.4703353,1.4703353 45 0 1 1.470335,1.47034 v 10.70872 a 1.8737015,1.8737015 135 0 1 -1.873702,1.8737 H 79.020755 a 2.1859852,2.1859852 45 0 1 -2.185985,-2.18598 v -10.31837 a 1.5484061,1.5484061 135 0 1 1.548406,-1.54841 z"
       transform="translate(0,-5.8363618)" /><path
       style="fill:#00abb9;fill-opacity:1;stroke-width:0"
       id="rect13-57"
       width="14.183"
       height="14.052762"
       x="76.83477"
       y="125.23873"
       inkscape:path-effect="#path-effect13-1"
       sodipodi:type="rect"
       d="m 78.383176,125.23873 h 11.164259 a 1.4703353,1.4703353 45 0 1 1.470335,1.47034 v 10.70872 a 1.8737015,1.8737015 135 0 1 -1.873702,1.8737 H 79.020755 a 2.1859852,2.1859852 45 0 1 -2.185985,-2.18598 v -10.31837 a 1.5484061,1.5484061 135 0 1 1.548406,-1.54841 z"
       transform="translate(42.988937,-5.8735281)" /><path
       style="fill:#fe9511;fill-opacity:1;stroke-width:0"
       id="rect13-57-7"
       width="14.183"
       height="14.052762"
       x="76.83477"
       y="125.23873"
       inkscape:path-effect="#path-effect13-1-8"
       sodipodi:type="rect"
       d="m 78.383176,125.23873 h 11.164259 a 1.4703353,1.4703353 45 0 1 1.470335,1.47034 v 10.70872 a 1.8737015,1.8737015 135 0 1 -1.873702,1.8737 H 79.020755 a 2.1859852,2.1859852 45 0 1 -2.185985,-2.18598 v -10.31837 a 1.5484061,1.5484061 135 0 1 1.548406,-1.54841 z"
       transform="matrix(1.2594866,0,0,1,44.212769,-5.8735281)" /><path
       style="fill:#00abb9;fill-opacity:1;stroke-width:0"
       id="rect13-57-7-2"
       width="14.183"
       height="14.052762"
       x="76.83477"
       y="125.23873"
       inkscape:path-effect="#path-effect13-1-8-4"
       sodipodi:type="rect"
       d="m 78.383176,125.23873 h 11.164259 a 1.4703353,1.4703353 45 0 1 1.470335,1.47034 v 10.70872 a 1.8737015,1.8737015 135 0 1 -1.873702,1.8737 H 79.020755 a 2.1859852,2.1859852 45 0 1 -2.185985,-2.18598 v -10.31837 a 1.5484061,1.5484061 135 0 1 1.548406,-1.54841 z"
       transform="matrix(1.2594866,0,0,1,-44.709044,-5.8363618)" /><path
       style="fill:#a2d037;fill-opacity:1;stroke-width:0"
       id="rect13-5"
       width="24.787619"
       height="18.346666"
       x="71.56498"
       y="123.09178"
       inkscape:path-effect="#path-effect13-2"
       sodipodi:type="rect"
       d="m 73.568799,123.09178 h 20.727932 a 2.055867,2.055867 45 0 1 2.055867,2.05587 v 14.15686 a 2.1339379,2.1339379 135 0 1 -2.133938,2.13394 l -20.662872,0 A 1.990808,1.990808 45 0 1 71.56498,139.44764 V 125.0956 a 2.0038197,2.0038197 135 0 1 2.003819,-2.00382 z"
       transform="translate(-16.17505,-38.660589)"
       inkscape:transform-center-x="-10.994985"
       inkscape:transform-center-y="21.014083" /><path
       style="fill:#fe9511;fill-opacity:1;stroke-width:0"
       id="rect13-5-2"
       width="24.787619"
       height="18.346666"
       x="71.56498"
       y="123.09178"
       inkscape:path-effect="#path-effect13-2-1"
       sodipodi:type="rect"
       d="m 73.568799,123.09178 h 20.727932 a 2.055867,2.055867 45 0 1 2.055867,2.05587 v 14.15686 a 2.1339379,2.1339379 135 0 1 -2.133938,2.13394 l -20.662872,0 A 1.990808,1.990808 45 0 1 71.56498,139.44764 V 125.0956 a 2.0038197,2.0038197 135 0 1 2.003819,-2.00382 z"
       transform="translate(21.987821,-38.660589)"
       inkscape:transform-center-x="-10.994985"
       inkscape:transform-center-y="21.014083" /><path
       style="fill:#00abb9;fill-opacity:1;stroke-width:0"
       id="rect13-5-2-3"
       width="24.787619"
       height="18.346666"
       x="71.56498"
       y="123.09178"
       inkscape:path-effect="#path-effect13-2-1-1"
       sodipodi:type="rect"
       d="m 73.568799,123.09178 h 20.727932 a 2.055867,2.055867 45 0 1 2.055867,2.05587 v 14.15686 a 2.1339379,2.1339379 135 0 1 -2.133938,2.13394 l -20.662872,0 A 1.990808,1.990808 45 0 1 71.56498,139.44764 V 125.0956 a 2.0038197,2.0038197 135 0 1 2.003819,-2.00382 z"
       transform="translate(59.827587,-38.660589)"
       inkscape:transform-center-x="-10.994985"
       inkscape:transform-center-y="21.014083" /></g></svg>
